<?xml version="1.0" encoding="UTF-8"?>
<!DOCTYPE svg PUBLIC "-//W3C//DTD SVG 1.1//EN" "http://www.w3.org/Graphics/SVG/1.1/DTD/svg11.dtd">
<svg xmlns="http://www.w3.org/2000/svg" version="1.1" width="1024px" height="1024px" style="shape-rendering:geometricPrecision; text-rendering:geometricPrecision; image-rendering:optimizeQuality; fill-rule:evenodd; clip-rule:evenodd" xmlns:xlink="http://www.w3.org/1999/xlink">
<g><path style="opacity:0.008" fill="#3b6c6f" d="M 523.5,129.5 C 524.833,130.167 524.833,130.167 523.5,129.5 Z"/></g>
<g><path style="opacity:0.004" fill="#3a6f70" d="M 458.5,163.5 C 457.833,162.167 457.833,162.167 458.5,163.5 Z"/></g>
<g><path style="opacity:0.004" fill="#3a6f73" d="M 396.5,216.5 C 395.833,215.167 395.833,215.167 396.5,216.5 Z"/></g>
<g><path style="opacity:0.004" fill="#3e6f70" d="M 631.5,219.5 C 632.833,220.167 632.833,220.167 631.5,219.5 Z"/></g>
<g><path style="opacity:0.016" fill="#356c70" d="M 660.5,244.5 C 661.833,245.167 661.833,245.167 660.5,244.5 Z"/></g>
<g><path style="opacity:0.008" fill="#396f71" d="M 346.5,258.5 C 345.833,257.167 345.833,257.167 346.5,258.5 Z"/></g>
<g><path style="opacity:0.008" fill="#397171" d="M 675.5,257.5 C 676.833,258.167 676.833,258.167 675.5,257.5 Z"/></g>
<g><path style="opacity:0.004" fill="#366b6b" d="M 678.5,260.5 C 679.833,261.167 679.833,261.167 678.5,260.5 Z"/></g>
<g><path style="opacity:0.004" fill="#3c6e70" d="M 325.5,276.5 C 324.833,275.167 324.833,275.167 325.5,276.5 Z"/></g>
<g><path style="opacity:0.004" fill="#386e6f" d="M 711.5,288.5 C 712.833,289.167 712.833,289.167 711.5,288.5 Z"/></g>
<g><path style="opacity:0.016" fill="#3b6e71" d="M 715.5,291.5 C 716.833,292.167 716.833,292.167 715.5,291.5 Z"/></g>
<g><path style="opacity:0.004" fill="#386f6d" d="M 717.5,293.5 C 718.833,294.167 718.833,294.167 717.5,293.5 Z"/></g>
<g><path style="opacity:1" fill="#19434f" d="M 634.5,224.5 C 648.167,235.833 661.833,247.167 675.5,258.5C 676.167,259.833 677.167,260.833 678.5,261.5C 689.475,270.804 700.475,280.137 711.5,289.5C 712.262,291.262 713.596,292.262 715.5,292.5C 715.833,293.5 716.5,294.167 717.5,294.5C 744.5,317.998 771.666,341.331 799,364.5C 809.05,376.793 808.883,388.793 798.5,400.5C 797.957,400.44 797.624,400.107 797.5,399.5C 805.376,390.345 806.542,380.345 801,369.5C 774.114,345.28 746.614,321.78 718.5,299C 715.337,293.418 710.67,291.085 704.5,292C 705.167,290.667 706.167,289.667 707.5,289C 685.353,270.354 663.353,251.521 641.5,232.5C 640.914,232.709 640.414,233.043 640,233.5C 638.237,230.398 636.404,227.398 634.5,224.5 Z"/></g>
<g><path style="opacity:0.004" fill="#3a6d6c" d="M 262.5,330.5 C 261.833,329.167 261.833,329.167 262.5,330.5 Z"/></g>
<g><path style="opacity:1" fill="#034964" d="M 523.5,130.5 C 561.057,161.121 598.057,192.454 634.5,224.5C 636.404,227.398 638.237,230.398 640,233.5C 640.414,233.043 640.914,232.709 641.5,232.5C 663.353,251.521 685.353,270.354 707.5,289C 706.167,289.667 705.167,290.667 704.5,292C 710.67,291.085 715.337,293.418 718.5,299C 746.614,321.78 774.114,345.28 801,369.5C 806.542,380.345 805.376,390.345 797.5,399.5C 797.624,400.107 797.957,400.44 798.5,400.5C 788.339,411.494 777.672,421.994 766.5,432C 752.041,442.395 738.041,441.895 724.5,430.5C 724.158,429.662 723.492,429.328 722.5,429.5C 721.665,500.096 721.165,571.43 721,643.5C 720.519,647.531 719.853,651.531 719,655.5C 717.177,659.806 715.677,664.14 714.5,668.5C 704.598,684.375 690.265,693.375 671.5,695.5C 570.167,694.167 468.833,694.167 367.5,695.5C 344.98,698.78 325.814,691.114 310,672.5C 307.279,668.392 305.113,664.059 303.5,659.5C 304.043,659.44 304.376,659.107 304.5,658.5C 303.225,655.627 302.392,652.627 302,649.5C 301.833,575.164 301.333,500.831 300.5,426.5C 298.617,427.265 297.951,428.265 298.5,429.5C 298.5,429.833 298.5,430.167 298.5,430.5C 287.033,440.126 274.366,441.959 260.5,436C 253.069,430.573 246.236,424.407 240,417.5C 234.032,410.531 227.699,403.864 221,397.5C 214.517,386.346 215.183,375.679 223,365.5C 236.521,354.169 249.688,342.502 262.5,330.5C 284.099,313.2 305.099,295.2 325.5,276.5C 333.114,271.219 340.114,265.219 346.5,258.5C 363.484,244.846 380.151,230.846 396.5,216.5C 417.579,199.297 438.246,181.63 458.5,163.5C 470.941,153.569 483.274,143.402 495.5,133C 504.46,128.087 513.793,127.253 523.5,130.5 Z"/></g>
<g><path style="opacity:1" fill="#2c9aa2" d="M 506.5,155.5 C 509.518,155.335 512.518,155.502 515.5,156C 603.984,230.004 691.817,304.837 779,380.5C 779.667,382.5 779.667,384.5 779,386.5C 769.5,395.333 760,404.167 750.5,413C 746.833,413.667 743.167,413.667 739.5,413C 666.127,349.958 592.461,287.292 518.5,225C 513.833,223 509.167,223 504.5,225C 431.314,286.763 358.314,348.763 285.5,411C 280.32,413.851 274.987,414.185 269.5,412C 260.667,403.167 251.833,394.333 243,385.5C 242.333,383.5 242.333,381.5 243,379.5C 331.025,304.969 418.858,230.302 506.5,155.5 Z"/></g>
<g><path style="opacity:1" fill="#93c6d3" d="M 697.5,433.5 C 697.667,504.167 697.5,574.834 697,645.5C 696.654,647.218 696.154,648.885 695.5,650.5C 695.624,651.107 695.957,651.44 696.5,651.5C 692.188,661.307 684.854,667.807 674.5,671C 649.167,671.667 623.833,671.667 598.5,671C 599.252,670.329 599.586,669.496 599.5,668.5C 600.338,668.158 600.672,667.492 600.5,666.5C 601.771,663.657 602.604,660.657 603,657.5C 603.333,649.5 603.667,641.5 604,633.5C 609.54,630.295 613.207,625.628 615,619.5C 615.667,596.5 615.667,573.5 615,550.5C 613.547,544.715 610.214,540.381 605,537.5C 604.667,525.5 604.333,513.5 604,501.5C 599.108,471.122 581.275,457.455 550.5,460.5C 559.865,427.35 554.365,397.016 534,369.5C 509.467,342.485 478.967,331.151 442.5,335.5C 442.062,335.565 441.728,335.399 441.5,335C 462.687,316.902 483.687,298.569 504.5,280C 508.039,278.496 511.705,278.163 515.5,279C 520.833,283 526.167,287 531.5,291C 586.411,339.084 641.744,386.584 697.5,433.5 Z"/></g>
<g><path style="opacity:0.008" fill="#387074" d="M 215.5,390.5 C 216.833,391.167 216.833,391.167 215.5,390.5 Z"/></g>
<g><path style="opacity:1" fill="#93c7d3" d="M 370.5,396.5 C 365.282,414.179 364.115,432.179 367,450.5C 367.392,453.627 368.225,456.627 369.5,459.5C 351.861,459.161 336.861,465.161 324.5,477.5C 323.501,463.516 323.167,449.516 323.5,435.5C 339.621,423.003 355.121,409.669 370,395.5C 370.399,395.728 370.565,396.062 370.5,396.5 Z"/></g>
<g><path style="opacity:1" fill="#69a8be" d="M 696.5,407.5 C 697.122,408.627 697.955,409.627 699,410.5C 699.832,488.334 699.666,566.001 698.5,643.5C 698.833,573.331 698.499,503.331 697.5,433.5C 641.744,386.584 586.411,339.084 531.5,291C 526.167,287 520.833,283 515.5,279C 511.705,278.163 508.039,278.496 504.5,280C 483.687,298.569 462.687,316.902 441.5,335C 441.728,335.399 442.062,335.565 442.5,335.5C 408.112,343.554 384.112,363.887 370.5,396.5C 370.565,396.062 370.399,395.728 370,395.5C 355.121,409.669 339.621,423.003 323.5,435.5C 323.334,427.16 323.5,418.827 324,410.5C 325.039,409.29 326.206,408.29 327.5,407.5C 388.845,354.989 450.345,302.655 512,250.5C 573.674,302.678 635.174,355.011 696.5,407.5 Z"/></g>
<g><path style="opacity:0.008" fill="#377072" d="M 296.5,435.5 C 297.833,436.167 297.833,436.167 296.5,435.5 Z"/></g>
<g><path style="opacity:0.004" fill="#3c6b6d" d="M 274.5,441.5 C 274.897,440.475 275.563,440.308 276.5,441C 275.906,441.464 275.239,441.631 274.5,441.5 Z"/></g>
<g><path style="opacity:0.008" fill="#3f6e6f" d="M 743.5,440.5 C 744.833,441.167 744.833,441.167 743.5,440.5 Z"/></g>
<g><path style="opacity:0.713" fill="#386467" d="M 298.5,429.5 C 299.222,429.918 299.722,430.584 300,431.5C 300.5,503.499 300.667,575.499 300.5,647.5C 299.829,624.098 299.162,600.598 298.5,577C 298.969,528.297 298.969,479.464 298.5,430.5C 298.5,430.167 298.5,429.833 298.5,429.5 Z"/></g>
<g><path style="opacity:0.004" fill="#447575" d="M 724.5,467.5 C 725.833,468.167 725.833,468.167 724.5,467.5 Z"/></g>
<g><path style="opacity:1" fill="#c0f4fa" d="M 697.5,433.5 C 698.499,503.331 698.833,573.331 698.5,643.5C 698.5,644.5 698.5,645.5 698.5,646.5C 697.596,647.209 697.263,648.209 697.5,649.5C 697.167,650.167 696.833,650.833 696.5,651.5C 695.957,651.44 695.624,651.107 695.5,650.5C 696.154,648.885 696.654,647.218 697,645.5C 697.5,574.834 697.667,504.167 697.5,433.5 Z"/></g>
<g><path style="opacity:1" fill="#04364a" d="M 303.5,659.5 C 302.833,658.5 302.167,657.5 301.5,656.5C 300.841,653.545 300.508,650.545 300.5,647.5C 300.667,575.499 300.5,503.499 300,431.5C 299.722,430.584 299.222,429.918 298.5,429.5C 297.951,428.265 298.617,427.265 300.5,426.5C 301.333,500.831 301.833,575.164 302,649.5C 302.392,652.627 303.225,655.627 304.5,658.5C 304.376,659.107 304.043,659.44 303.5,659.5 Z"/></g>
<g><path style="opacity:0.007" fill="#437374" d="M 724.5,489.5 C 725.573,490.251 725.74,491.251 725,492.5C 724.517,491.552 724.351,490.552 724.5,489.5 Z"/></g>
<g><path style="opacity:1" fill="#1479a6" d="M 581.5,637.5 C 581.884,644.589 581.384,651.589 580,658.5C 577.557,664.818 573.057,668.985 566.5,671C 493.5,671.667 420.5,671.667 347.5,671C 342.4,669.615 337.733,667.448 333.5,664.5C 329.294,659.449 326.127,653.782 324,647.5C 323.333,602.5 323.333,557.5 324,512.5C 326.5,504.667 331.667,499.5 339.5,497C 415.167,496.333 490.833,496.333 566.5,497C 573.181,499.013 578.014,503.18 581,509.5C 581.5,517.827 581.666,526.16 581.5,534.5C 567.496,534.333 553.496,534.5 539.5,535C 510.459,544.239 497.292,564.072 500,594.5C 505.171,617.004 519.004,630.837 541.5,636C 555.006,636.169 568.34,636.669 581.5,637.5 Z"/></g>
<g><path style="opacity:0.016" fill="#447474" d="M 724.5,500.5 C 725.833,501.167 725.833,501.167 724.5,500.5 Z"/></g>
<g><path style="opacity:0.016" fill="#467676" d="M 724.5,522.5 C 725.573,523.251 725.74,524.251 725,525.5C 724.517,524.552 724.351,523.552 724.5,522.5 Z"/></g>
<g><path style="opacity:0.008" fill="#467473" d="M 724.5,530.5 C 725.573,531.251 725.74,532.251 725,533.5C 724.517,532.552 724.351,531.552 724.5,530.5 Z"/></g>
<g><path style="opacity:1" fill="#034863" d="M 442.5,335.5 C 478.967,331.151 509.467,342.485 534,369.5C 554.365,397.016 559.865,427.35 550.5,460.5C 581.275,457.455 599.108,471.122 604,501.5C 604.333,513.5 604.667,525.5 605,537.5C 610.214,540.381 613.547,544.715 615,550.5C 615.667,573.5 615.667,596.5 615,619.5C 613.207,625.628 609.54,630.295 604,633.5C 603.667,641.5 603.333,649.5 603,657.5C 602.604,660.657 601.771,663.657 600.5,666.5C 599.957,666.44 599.624,666.107 599.5,665.5C 601.496,655.608 601.996,645.608 601,635.5C 599.846,637.957 598.512,637.957 597,635.5C 596.383,636.449 596.549,637.282 597.5,638C 594.617,638.795 593.117,637.629 593,634.5C 590.911,635.991 588.911,637.658 587,639.5C 586.676,637.431 585.842,637.098 584.5,638.5C 583.671,643.802 583.171,649.136 583,654.5C 582.827,648.652 582.327,642.985 581.5,637.5C 568.34,636.669 555.006,636.169 541.5,636C 519.004,630.837 505.171,617.004 500,594.5C 497.292,564.072 510.459,544.239 539.5,535C 553.496,534.5 567.496,534.333 581.5,534.5C 581.666,526.16 581.5,517.827 581,509.5C 578.014,503.18 573.181,499.013 566.5,497C 490.833,496.333 415.167,496.333 339.5,497C 331.667,499.5 326.5,504.667 324,512.5C 323.333,557.5 323.333,602.5 324,647.5C 326.127,653.782 329.294,659.449 333.5,664.5C 327.798,660.801 324.298,655.468 323,648.5C 322.818,639.922 322.318,631.422 321.5,623C 322.31,607.729 322.643,592.396 322.5,577C 322.097,574.359 321.097,572.026 319.5,570C 321.651,568.227 322.651,565.894 322.5,563C 322.396,547.126 322.063,531.793 321.5,517C 323.99,510.006 326.157,503.173 328,496.5C 332.364,497.706 332.531,497.206 328.5,495C 330.055,493.354 331.721,493.021 333.5,494C 332.547,492.296 331.547,490.63 330.5,489C 331.615,487.765 331.615,486.598 330.5,485.5C 331.167,484.5 331.833,483.5 332.5,482.5C 331.01,481.174 329.676,479.674 328.5,478C 331.228,477.361 331.728,476.194 330,474.5C 326.751,476.734 324.751,479.734 324,483.5C 323.027,481.608 322.36,479.608 322,477.5C 321.333,455.167 321.333,432.833 322,410.5C 323.167,409.333 324.333,408.167 325.5,407C 326.437,406.308 327.103,406.475 327.5,407.5C 326.206,408.29 325.039,409.29 324,410.5C 323.5,418.827 323.334,427.16 323.5,435.5C 323.167,449.516 323.501,463.516 324.5,477.5C 336.861,465.161 351.861,459.161 369.5,459.5C 368.225,456.627 367.392,453.627 367,450.5C 364.115,432.179 365.282,414.179 370.5,396.5C 384.112,363.887 408.112,343.554 442.5,335.5 Z"/></g>
<g><path style="opacity:1" fill="#092873" d="M 401.5,479.5 C 404.667,482.498 408,485.331 411.5,488C 443.498,488.5 475.498,488.667 507.5,488.5C 475.336,489.664 443.003,489.831 410.5,489C 406.598,486.6 403.598,483.434 401.5,479.5 Z"/></g>
<g><path style="opacity:1" fill="#153466" d="M 396.5,389.5 C 391.516,398.949 388.016,408.949 386,419.5C 385.401,428.516 385.568,437.516 386.5,446.5C 384.723,442.159 383.723,436.325 383.5,429C 383.929,414.412 388.263,401.245 396.5,389.5 Z"/></g>
<g><path style="opacity:1" fill="#173169" d="M 519.5,384.5 C 524.767,390.692 528.767,397.692 531.5,405.5C 531.457,406.416 531.124,407.083 530.5,407.5C 527.619,399.407 523.953,391.74 519.5,384.5 Z"/></g>
<g><path style="opacity:1" fill="#f7cb29" d="M 480.5,358.5 C 495.598,363.892 508.598,372.559 519.5,384.5C 523.953,391.74 527.619,399.407 530.5,407.5C 536.444,429.796 533.944,451.13 523,471.5C 518.677,477.987 513.51,483.654 507.5,488.5C 475.498,488.667 443.498,488.5 411.5,488C 408,485.331 404.667,482.498 401.5,479.5C 394.374,469.452 389.374,458.452 386.5,446.5C 385.568,437.516 385.401,428.516 386,419.5C 388.016,408.949 391.516,398.949 396.5,389.5C 407.124,374.535 421.124,364.202 438.5,358.5C 452.502,355.833 466.502,355.833 480.5,358.5 Z"/></g>
<g><path style="opacity:1" fill="#f6b810" d="M 449.5,374.5 C 482.896,372.105 504.729,386.772 515,418.5C 518.189,448.623 506.689,471.123 480.5,486C 448.302,495.732 424.468,486.232 409,457.5C 397.919,429.339 403.419,405.172 425.5,385C 432.873,379.724 440.873,376.224 449.5,374.5 Z"/></g>
<g><path style="opacity:1" fill="#f4f4eb" d="M 467.5,416.5 C 476.582,416.086 485.582,416.586 494.5,418C 503.751,424.074 506.918,432.574 504,443.5C 502.167,450 498,454.167 491.5,456C 486.845,456.499 482.179,456.666 477.5,456.5C 477.5,461.833 477.5,467.167 477.5,472.5C 473.894,472.789 470.394,472.456 467,471.5C 466.181,453.093 466.348,434.76 467.5,416.5 Z"/></g>
<g><path style="opacity:1" fill="#f6b714" d="M 477.5,426.5 C 488.988,424.496 494.155,429.162 493,440.5C 492.215,442.286 491.049,443.786 489.5,445C 485.514,445.499 481.514,445.666 477.5,445.5C 477.5,439.167 477.5,432.833 477.5,426.5 Z"/></g>
<g><path style="opacity:1" fill="#f4f4e9" d="M 423.5,398.5 C 431.507,398.334 439.507,398.5 447.5,399C 458.878,403.249 463.378,411.415 461,423.5C 459.327,428.175 456.494,432.009 452.5,435C 456.004,442.17 459.337,449.337 462.5,456.5C 458.154,456.666 453.821,456.499 449.5,456C 446.477,449.454 443.311,442.954 440,436.5C 437.619,435.565 435.119,435.232 432.5,435.5C 432.5,442.5 432.5,449.5 432.5,456.5C 428.894,456.789 425.394,456.456 422,455.5C 421.333,437.167 421.333,418.833 422,400.5C 422.717,399.956 423.217,399.289 423.5,398.5 Z"/></g>
<g><path style="opacity:1" fill="#f7b610" d="M 432.5,409.5 C 436.846,409.334 441.179,409.501 445.5,410C 450.311,414.791 450.644,419.791 446.5,425C 441.845,425.499 437.179,425.666 432.5,425.5C 432.5,420.167 432.5,414.833 432.5,409.5 Z"/></g>
<g><path style="opacity:1" fill="#163a68" d="M 480.5,358.5 C 466.502,355.833 452.502,355.833 438.5,358.5C 439.565,357.135 441.565,356.302 444.5,356C 454.844,354.069 465.177,354.069 475.5,356C 478.251,356.124 479.918,356.957 480.5,358.5 Z"/></g>
<g><path style="opacity:0.013" fill="#457475" d="M 724.5,537.5 C 725.622,539.288 725.789,541.288 725,543.5C 724.505,541.527 724.338,539.527 724.5,537.5 Z"/></g>
<g><path style="opacity:0.275" fill="#608882" d="M 722.5,429.5 C 723.492,429.328 724.158,429.662 724.5,430.5C 723.833,500.833 723.167,571.167 722.5,641.5C 722.5,570.833 722.5,500.167 722.5,429.5 Z"/></g>
<g><path style="opacity:0.012" fill="#457675" d="M 724.5,555.5 C 725.833,556.167 725.833,556.167 724.5,555.5 Z"/></g>
<g><path style="opacity:1" fill="#1479a5" d="M 543.5,556.5 C 559.744,556.175 575.911,556.509 592,557.5C 592.825,576.407 592.659,595.24 591.5,614C 575.5,614.667 559.5,614.667 543.5,614C 526.499,608.16 518.999,596.327 521,578.5C 525.117,567.548 532.617,560.215 543.5,556.5 Z"/></g>
<g><path style="opacity:0.402" fill="#cbc697" d="M -0.5,-0.5 C -0.166667,-0.5 0.166667,-0.5 0.5,-0.5C 0.5,340.833 0.5,682.167 0.5,1023.5C 0.166667,1023.5 -0.166667,1023.5 -0.5,1023.5C -0.5,682.167 -0.5,340.833 -0.5,-0.5 Z"/></g>
<g><path style="opacity:0.004" fill="#477574" d="M 724.5,563.5 C 725.833,564.167 725.833,564.167 724.5,563.5 Z"/></g>
<g><path style="opacity:0.004" fill="#477575" d="M 724.5,571.5 C 725.833,572.167 725.833,572.167 724.5,571.5 Z"/></g>
<g><path style="opacity:1" fill="#eff1e8" d="M 547.5,571.5 C 562.251,571.724 567.418,578.724 563,592.5C 554.992,600.779 547.325,600.446 540,591.5C 538.723,587.903 538.39,584.236 539,580.5C 541.362,576.973 544.196,573.973 547.5,571.5 Z"/></g>
<g><path style="opacity:0.008" fill="#4a7774" d="M 724.5,576.5 C 725.833,577.167 725.833,577.167 724.5,576.5 Z"/></g>
<g><path style="opacity:0.004" fill="#487774" d="M 724.5,578.5 C 725.833,579.167 725.833,579.167 724.5,578.5 Z"/></g>
<g><path style="opacity:1" fill="#002443" d="M 696.5,407.5 C 698.017,407.511 699.184,408.177 700,409.5C 700.667,488.167 700.667,566.833 700,645.5C 699.667,646.5 699.333,647.5 699,648.5C 698.536,647.906 698.369,647.239 698.5,646.5C 698.5,645.5 698.5,644.5 698.5,643.5C 699.666,566.001 699.832,488.334 699,410.5C 697.955,409.627 697.122,408.627 696.5,407.5 Z"/></g>
<g><path style="opacity:0.004" fill="#457575" d="M 724.5,585.5 C 725.833,586.167 725.833,586.167 724.5,585.5 Z"/></g>
<g><path style="opacity:0.016" fill="#467677" d="M 724.5,596.5 C 725.833,597.167 725.833,597.167 724.5,596.5 Z"/></g>
<g><path style="opacity:0.983" fill="#0d3542" d="M 722.5,429.5 C 722.5,500.167 722.5,570.833 722.5,641.5C 722.637,651.415 719.97,660.415 714.5,668.5C 715.677,664.14 717.177,659.806 719,655.5C 719.853,651.531 720.519,647.531 721,643.5C 721.165,571.43 721.665,500.096 722.5,429.5 Z"/></g>
<g><path style="opacity:0.004" fill="#497575" d="M 724.5,601.5 C 725.525,601.897 725.692,602.563 725,603.5C 724.536,602.906 724.369,602.239 724.5,601.5 Z"/></g>
<g><path style="opacity:0.008" fill="#4a7774" d="M 724.5,604.5 C 725.833,605.167 725.833,605.167 724.5,604.5 Z"/></g>
<g><path style="opacity:0.008" fill="#497674" d="M 724.5,611.5 C 725.833,612.167 725.833,612.167 724.5,611.5 Z"/></g>
<g><path style="opacity:0.008" fill="#497574" d="M 724.5,617.5 C 725.833,618.167 725.833,618.167 724.5,617.5 Z"/></g>
<g><path style="opacity:0.004" fill="#4a7874" d="M 724.5,635.5 C 725.833,636.167 725.833,636.167 724.5,635.5 Z"/></g>
<g><path style="opacity:0.004" fill="#477474" d="M 724.5,643.5 C 725.833,644.167 725.833,644.167 724.5,643.5 Z"/></g>
<g><path style="opacity:0.004" fill="#497777" d="M 723.5,649.5 C 724.833,650.167 724.833,650.167 723.5,649.5 Z"/></g>
<g><path style="opacity:0.004" fill="#417571" d="M 301.5,656.5 C 300.833,657.167 300.833,657.167 301.5,656.5 Z"/></g>
<g><path style="opacity:0.008" fill="#407171" d="M 305.5,668.5 C 306.833,669.167 306.833,669.167 305.5,668.5 Z"/></g>
<g><path style="opacity:1" fill="#042d46" d="M 697.5,649.5 C 698.573,650.251 698.74,651.251 698,652.5C 693.356,661.812 686.19,668.312 676.5,672C 650.167,672.667 623.833,672.667 597.5,672C 596.85,670.391 597.35,668.891 599,667.5C 599.399,667.728 599.565,668.062 599.5,668.5C 599.586,669.496 599.252,670.329 598.5,671C 623.833,671.667 649.167,671.667 674.5,671C 684.854,667.807 692.188,661.307 696.5,651.5C 696.833,650.833 697.167,650.167 697.5,649.5 Z"/></g>
<g><path style="opacity:0.008" fill="#3a6f77" d="M 685.5,694.5 C 685.897,693.475 686.563,693.308 687.5,694C 686.906,694.464 686.239,694.631 685.5,694.5 Z"/></g>
<g><path style="opacity:0.947" fill="#031e2b" d="M 367.5,695.5 C 468.833,694.167 570.167,694.167 671.5,695.5C 571.271,696.155 469.938,696.155 367.5,695.5 Z"/></g>
<g><path style="opacity:0.004" fill="#436e71" d="M 135.5,742.5 C 136.833,743.167 136.833,743.167 135.5,742.5 Z"/></g>
<g><path style="opacity:0.012" fill="#246776" d="M 399.5,761.5 C 400.525,761.897 400.692,762.563 400,763.5C 399.536,762.906 399.369,762.239 399.5,761.5 Z"/></g>
<g><path style="opacity:0.008" fill="#1e6a78" d="M 542.5,763.5 C 543.833,764.167 543.833,764.167 542.5,763.5 Z"/></g>
<g><path style="opacity:0.008" fill="#22677a" d="M 400.5,764.5 C 401.833,765.167 401.833,765.167 400.5,764.5 Z"/></g>
<g><path style="opacity:0.02" fill="#256570" d="M 379.5,767.5 C 380.833,768.167 380.833,768.167 379.5,767.5 Z"/></g>
<g><path style="opacity:0.008" fill="#2b6972" d="M 603.5,767.5 C 604.833,768.167 604.833,768.167 603.5,767.5 Z"/></g>
<g><path style="opacity:0.016" fill="#2c676f" d="M 338.5,769.5 C 337.833,768.167 337.833,768.167 338.5,769.5 Z"/></g>
<g><path style="opacity:0.012" fill="#246872" d="M 559.5,768.5 C 560.833,769.167 560.833,769.167 559.5,768.5 Z"/></g>
<g><path style="opacity:0.004" fill="#27666e" d="M 605.5,768.5 C 606.833,769.167 606.833,769.167 605.5,768.5 Z"/></g>
<g><path style="opacity:0.008" fill="#236974" d="M 401.5,769.5 C 402.833,770.167 402.833,770.167 401.5,769.5 Z"/></g>
<g><path style="opacity:1" fill="#044861" d="M 141.5,735.5 C 147.653,734.347 153.986,734.18 160.5,735C 162.02,736.885 163.02,739.051 163.5,741.5C 163.014,752.195 162.681,762.695 162.5,773C 163.167,773.333 163.833,773.667 164.5,774C 163.106,774.956 162.439,776.289 162.5,778C 162.423,780.914 162.59,783.747 163,786.5C 177.167,769.667 191.333,752.833 205.5,736C 213.061,734.402 220.728,734.069 228.5,735C 229.5,736 230.5,737 231.5,738C 218.5,753.667 205.5,769.333 192.5,785C 193.163,786.518 194.163,787.685 195.5,788.5C 200.387,797.712 206.054,806.379 212.5,814.5C 219.855,827.367 227.855,839.867 236.5,852C 234.649,852.837 232.816,853.671 231,854.5C 223.545,854.775 215.711,854.275 207.5,853C 196.606,837.103 186.106,820.936 176,804.5C 172.664,809.002 168.831,813.002 164.5,816.5C 164.565,816.062 164.399,815.728 164,815.5C 163,816.5 162,817.5 161,818.5C 160.416,829.921 159.916,841.254 159.5,852.5C 153.242,852.81 147.076,852.476 141,851.5C 140.333,813.5 140.333,775.5 141,737.5C 147.085,736.688 153.252,736.188 159.5,736C 153.509,735.501 147.509,735.334 141.5,735.5 Z"/></g>
<g><path style="opacity:0.008" fill="#226573" d="M 178.5,764.5 C 179.833,765.167 179.833,765.167 178.5,764.5 Z"/></g>
<g><path style="opacity:0.004" fill="#266773" d="M 181.5,760.5 C 182.833,761.167 182.833,761.167 181.5,760.5 Z"/></g>
<g><path style="opacity:0.008" fill="#276674" d="M 188.5,752.5 C 189.833,753.167 189.833,753.167 188.5,752.5 Z"/></g>
<g><path style="opacity:0.008" fill="#3e6f71" d="M 135.5,771.5 C 136.833,772.167 136.833,772.167 135.5,771.5 Z"/></g>
<g><path style="opacity:1" fill="#06475f" d="M 308.5,782.5 C 308.328,783.492 308.662,784.158 309.5,784.5C 309.263,785.791 309.596,786.791 310.5,787.5C 311.622,808.809 311.788,830.143 311,851.5C 310.5,852 310,852.5 309.5,853C 303.657,854.119 297.657,854.119 291.5,853C 289.375,850.578 289.042,848.244 290.5,846C 290,845.5 289.5,845 289,844.5C 278.583,855.66 266.083,858.826 251.5,854C 248.351,852.338 245.351,850.505 242.5,848.5C 235.992,841.49 233.325,833.157 234.5,823.5C 237.135,815.104 242.468,808.937 250.5,805C 256.905,803.531 263.071,801.697 269,799.5C 269.333,800.167 269.667,800.833 270,801.5C 276.41,800.522 282.91,800.189 289.5,800.5C 289.379,792.739 285.712,787.573 278.5,785C 269.008,782.597 262.008,785.597 257.5,794C 251.029,794.394 244.862,793.227 239,790.5C 238.54,785.881 239.706,781.714 242.5,778C 242.167,777.667 241.833,777.333 241.5,777C 258.849,763.398 277.516,761.398 297.5,771C 301.735,774.399 305.402,778.233 308.5,782.5 Z M 274.5,815.5 C 279.544,815.173 284.544,815.506 289.5,816.5C 289.755,829.599 283.088,836.933 269.5,838.5C 258.994,836.815 255.827,831.148 260,821.5C 264.405,818.205 269.238,816.205 274.5,815.5 Z"/></g>
<g><path style="opacity:0.024" fill="#1f6878" d="M 540.5,770.5 C 541.525,770.897 541.692,771.563 541,772.5C 540.536,771.906 540.369,771.239 540.5,770.5 Z"/></g>
<g><path style="opacity:0.004" fill="#2e6c74" d="M 635.5,771.5 C 636.833,772.167 636.833,772.167 635.5,771.5 Z"/></g>
<g><path style="opacity:0.008" fill="#216875" d="M 402.5,772.5 C 403.573,773.251 403.74,774.251 403,775.5C 402.517,774.552 402.351,773.552 402.5,772.5 Z"/></g>
<g><path style="opacity:0.012" fill="#2f6a70" d="M 302.5,773.5 C 303.833,774.167 303.833,774.167 302.5,773.5 Z"/></g>
<g><path style="opacity:0.004" fill="#216877" d="M 539.5,774.5 C 540.525,774.897 540.692,775.563 540,776.5C 539.536,775.906 539.369,775.239 539.5,774.5 Z"/></g>
<g><path style="opacity:0.004" fill="#236c77" d="M 390.5,776.5 C 391.833,777.167 391.833,777.167 390.5,776.5 Z"/></g>
<g><path style="opacity:0.008" fill="#206875" d="M 403.5,776.5 C 404.833,777.167 404.833,777.167 403.5,776.5 Z"/></g>
<g><path style="opacity:0.004" fill="#226874" d="M 403.5,778.5 C 404.833,779.167 404.833,779.167 403.5,778.5 Z"/></g>
<g><path style="opacity:0.651" fill="#193c45" d="M 855.5,850.5 C 855.337,848.143 855.503,845.81 856,843.5C 856.218,846.426 856.718,849.26 857.5,852C 862.887,852.784 868.22,852.618 873.5,851.5C 874.666,832.175 874.833,812.842 874,793.5C 871.547,781.71 864.714,773.544 853.5,769C 842.833,767 832.167,767 821.5,769C 813.279,771.346 807.779,776.513 805,784.5C 804.536,783.906 804.369,783.239 804.5,782.5C 807.916,775.084 813.582,769.917 821.5,767C 832.952,763.446 844.285,763.779 855.5,768C 868.327,773.841 875.327,783.841 876.5,798C 876.472,815.93 876.472,832.93 876.5,849C 875.833,850.333 875.167,851.667 874.5,853C 868.391,854.547 862.391,854.547 856.5,853C 855.748,852.329 855.414,851.496 855.5,850.5 Z"/></g>
<g><path style="opacity:0.008" fill="#3a6f70" d="M 135.5,779.5 C 136.833,780.167 136.833,780.167 135.5,779.5 Z"/></g>
<g><path style="opacity:0.004" fill="#296c75" d="M 635.5,779.5 C 636.833,780.167 636.833,780.167 635.5,779.5 Z"/></g>
<g><path style="opacity:1" fill="#194450" d="M 141.5,735.5 C 147.509,735.334 153.509,735.501 159.5,736C 153.252,736.188 147.085,736.688 141,737.5C 140.333,775.5 140.333,813.5 141,851.5C 147.076,852.476 153.242,852.81 159.5,852.5C 159.916,841.254 160.416,829.921 161,818.5C 162,817.5 163,816.5 164,815.5C 164.399,815.728 164.565,816.062 164.5,816.5C 164.013,817.473 163.513,818.473 163,819.5C 162.573,829.766 162.739,839.599 163.5,849C 162.809,850.067 162.309,851.234 162,852.5C 154.333,853.833 146.667,853.833 139,852.5C 137.515,814.892 137.015,777.392 137.5,740C 138.191,738.933 138.691,737.766 139,736.5C 139.671,735.748 140.504,735.414 141.5,735.5 Z"/></g>
<g><path style="opacity:0.008" fill="#276872" d="M 308.5,781.5 C 309.833,782.167 309.833,782.167 308.5,781.5 Z"/></g>
<g><path style="opacity:0.008" fill="#206775" d="M 404.5,781.5 C 405.833,782.167 405.833,782.167 404.5,781.5 Z"/></g>
<g><path style="opacity:0.012" fill="#3c6d6f" d="M 135.5,782.5 C 136.573,783.251 136.74,784.251 136,785.5C 135.517,784.552 135.351,783.552 135.5,782.5 Z"/></g>
<g><path style="opacity:0.008" fill="#1f6674" d="M 537.5,781.5 C 538.525,781.897 538.692,782.563 538,783.5C 537.536,782.906 537.369,782.239 537.5,781.5 Z"/></g>
<g><path style="opacity:0.004" fill="#20636f" d="M 309.5,784.5 C 309.897,783.475 310.563,783.308 311.5,784C 310.906,784.464 310.239,784.631 309.5,784.5 Z"/></g>
<g><path style="opacity:0.004" fill="#266b71" d="M 326.5,784.5 C 325.833,783.167 325.833,783.167 326.5,784.5 Z"/></g>
<g><path style="opacity:0.008" fill="#256772" d="M 547.5,782.5 C 548.525,782.897 548.692,783.563 548,784.5C 547.536,783.906 547.369,783.239 547.5,782.5 Z"/></g>
<g><path style="opacity:0.004" fill="#256a75" d="M 635.5,783.5 C 636.833,784.167 636.833,784.167 635.5,783.5 Z"/></g>
<g><path style="opacity:1" fill="#054861" d="M 660.5,776.5 C 665,773.522 669.667,770.689 674.5,768C 678.779,766.756 683.112,766.423 687.5,767C 686.317,773.592 686.317,780.092 687.5,786.5C 677.26,784.844 668.76,787.844 662,795.5C 660.154,798.569 659.154,801.902 659,805.5C 658.667,820.833 658.333,836.167 658,851.5C 652.067,852.148 646.234,852.814 640.5,853.5C 639.21,852.942 638.377,851.942 638,850.5C 637.333,823.5 637.333,796.5 638,769.5C 638.374,768.584 638.874,767.75 639.5,767C 645.5,766.333 651.5,766.333 657.5,767C 657.998,770.42 658.998,773.587 660.5,776.5 Z"/></g>
<g><path style="opacity:0.024" fill="#2b6c74" d="M 691.5,783.5 C 692.833,784.167 692.833,784.167 691.5,783.5 Z"/></g>
<g><path style="opacity:0.004" fill="#1b6a79" d="M 273.5,785.5 C 274.833,786.167 274.833,786.167 273.5,785.5 Z"/></g>
<g><path style="opacity:0.01" fill="#236773" d="M 310.5,787.5 C 310.369,786.761 310.536,786.094 311,785.5C 311.692,786.437 311.525,787.103 310.5,787.5 Z"/></g>
<g><path style="opacity:0.004" fill="#246874" d="M 323.5,786.5 C 324.833,787.167 324.833,787.167 323.5,786.5 Z"/></g>
<g><path style="opacity:0.01" fill="#236a75" d="M 635.5,786.5 C 636.525,786.897 636.692,787.563 636,788.5C 635.536,787.906 635.369,787.239 635.5,786.5 Z"/></g>
<g><path style="opacity:0.012" fill="#2d6974" d="M 802.5,787.5 C 801.761,787.631 801.094,787.464 800.5,787C 801.437,786.308 802.103,786.475 802.5,787.5 Z"/></g>
<g><path style="opacity:0.004" fill="#236978" d="M 195.5,787.5 C 196.833,788.167 196.833,788.167 195.5,787.5 Z"/></g>
<g><path style="opacity:0.004" fill="#386e6e" d="M 875.5,787.5 C 876.833,788.167 876.833,788.167 875.5,787.5 Z"/></g>
<g><path style="opacity:0.004" fill="#216775" d="M 678.5,789.5 C 679.833,790.167 679.833,790.167 678.5,789.5 Z"/></g>
<g><path style="opacity:0.016" fill="#286a76" d="M 697.5,789.5 C 698.833,790.167 698.833,790.167 697.5,789.5 Z"/></g>
<g><path style="opacity:0.02" fill="#3c6c6f" d="M 135.5,790.5 C 136.833,791.167 136.833,791.167 135.5,790.5 Z"/></g>
<g><path style="opacity:0.024" fill="#1d6774" d="M 383.5,790.5 C 384.833,791.167 384.833,791.167 383.5,790.5 Z"/></g>
<g><path style="opacity:0.004" fill="#1a6977" d="M 385.5,790.5 C 386.833,791.167 386.833,791.167 385.5,790.5 Z"/></g>
<g><path style="opacity:0.008" fill="#296973" d="M 548.5,790.5 C 547.833,791.167 547.833,791.167 548.5,790.5 Z"/></g>
<g><path style="opacity:0.012" fill="#216a75" d="M 673.5,790.5 C 674.833,791.167 674.833,791.167 673.5,790.5 Z"/></g>
<g><path style="opacity:0.008" fill="#256d77" d="M 696.5,791.5 C 697.833,792.167 697.833,792.167 696.5,791.5 Z"/></g>
<g><path style="opacity:0.004" fill="#1f6b76" d="M 323.5,792.5 C 324.833,793.167 324.833,793.167 323.5,792.5 Z"/></g>
<g><path style="opacity:0.016" fill="#1e6676" d="M 534.5,792.5 C 535.833,793.167 535.833,793.167 534.5,792.5 Z"/></g>
<g><path style="opacity:0.008" fill="#3c6d6c" d="M 876.5,792.5 C 877.833,793.167 877.833,793.167 876.5,792.5 Z"/></g>
<g><path style="opacity:0.004" fill="#1b6573" d="M 312.5,794.5 C 313.833,795.167 313.833,795.167 312.5,794.5 Z"/></g>
<g><path style="opacity:0.004" fill="#1b6777" d="M 534.5,794.5 C 535.833,795.167 535.833,795.167 534.5,794.5 Z"/></g>
<g><path style="opacity:0.004" fill="#186674" d="M 353.5,795.5 C 354.833,796.167 354.833,796.167 353.5,795.5 Z"/></g>
<g><path style="opacity:0.937" fill="#153c48" d="M 659.5,853.5 C 653.167,853.5 646.833,853.5 640.5,853.5C 646.234,852.814 652.067,852.148 658,851.5C 658.333,836.167 658.667,820.833 659,805.5C 659.154,801.902 660.154,798.569 662,795.5C 668.76,787.844 677.26,784.844 687.5,786.5C 686.317,780.092 686.317,773.592 687.5,767C 683.112,766.423 678.779,766.756 674.5,768C 669.667,770.689 665,773.522 660.5,776.5C 667.915,766.863 677.415,763.53 689,766.5C 689.309,767.766 689.809,768.933 690.5,770C 690.632,775.453 690.299,781.286 689.5,787.5C 681.737,787.107 674.404,788.607 667.5,792C 663.634,795.252 661.467,799.419 661,804.5C 660.804,820.877 660.304,837.211 659.5,853.5 Z"/></g>
<g><path style="opacity:0.012" fill="#216573" d="M 816.5,795.5 C 817.833,796.167 817.833,796.167 816.5,795.5 Z"/></g>
<g><path style="opacity:0.004" fill="#1f6775" d="M 622.5,797.5 C 623.833,798.167 623.833,798.167 622.5,797.5 Z"/></g>
<g><path style="opacity:0.004" fill="#1e6575" d="M 532.5,798.5 C 533.833,799.167 533.833,799.167 532.5,798.5 Z"/></g>
<g><path style="opacity:0.004" fill="#1a6375" d="M 593.5,798.5 C 594.833,799.167 594.833,799.167 593.5,798.5 Z"/></g>
<g><path style="opacity:0.016" fill="#1f6978" d="M 851.5,798.5 C 852.833,799.167 852.833,799.167 851.5,798.5 Z"/></g>
<g><path style="opacity:0.012" fill="#1e6a77" d="M 204.5,800.5 C 203.833,799.167 203.833,799.167 204.5,800.5 Z"/></g>
<g><path style="opacity:0.008" fill="#196675" d="M 262.5,799.5 C 263.833,800.167 263.833,800.167 262.5,799.5 Z"/></g>
<g><path style="opacity:0.008" fill="#2a6871" d="M 785.5,799.5 C 786.833,800.167 786.833,800.167 785.5,799.5 Z"/></g>
<g><path style="opacity:0.008" fill="#186474" d="M 829.5,799.5 C 830.833,800.167 830.833,800.167 829.5,799.5 Z"/></g>
<g><path style="opacity:0.012" fill="#1f6977" d="M 204.5,800.5 C 205.833,801.167 205.833,801.167 204.5,800.5 Z"/></g>
<g><path style="opacity:0.012" fill="#196778" d="M 567.5,800.5 C 568.833,801.167 568.833,801.167 567.5,800.5 Z"/></g>
<g><path style="opacity:1" fill="#0c4459" d="M 780.5,868.5 C 770.55,883.145 756.55,890.479 738.5,890.5C 723.17,890.684 710.67,885.017 701,873.5C 699.495,871.702 699.328,869.868 700.5,868C 705.008,865.246 709.674,862.746 714.5,860.5C 716.725,862.11 719.059,863.443 721.5,864.5C 726.12,867.533 731.286,868.866 737,868.5C 755.019,868.333 763.186,859.667 761.5,842.5C 759.408,844.605 757.075,846.272 754.5,847.5C 754.082,846.778 753.416,846.278 752.5,846C 753.783,843.373 755.283,840.873 757,838.5C 759.998,841.242 762.331,840.909 764,837.5C 764.853,839.125 765.853,839.458 767,838.5C 768.828,840.403 768.661,842.236 766.5,844C 767.167,844.667 767.833,845.333 768.5,846C 767.977,847.614 766.644,849.114 764.5,850.5C 765.274,851.711 766.107,851.711 767,850.5C 767.273,852.329 768.107,853.829 769.5,855C 768.833,855.333 768.167,855.667 767.5,856C 768.977,858.148 770.977,859.482 773.5,860C 770.953,860.354 768.619,860.02 766.5,859C 768.781,860.851 768.781,862.518 766.5,864C 766.833,864.333 767.167,864.667 767.5,865C 766.5,865.5 765.5,866 764.5,866.5C 763.468,864.96 762.135,864.46 760.5,865C 762.797,866.16 762.464,867.16 759.5,868C 760.112,869.303 760.446,870.47 760.5,871.5C 761.541,869.009 762.374,869.009 763,871.5C 763.333,870.833 763.667,870.167 764,869.5C 765,870.833 766,870.833 767,869.5C 767.691,871.891 768.691,871.891 770,869.5C 773.791,872.35 776.624,871.517 778.5,867C 777.111,864.468 777.611,862.301 780,860.5C 780.333,860.833 780.667,861.167 781,861.5C 782.544,857.188 781.044,855.022 776.5,855C 777.77,854.1 778.77,852.934 779.5,851.5C 781.748,856.96 782.915,856.627 783,850.5C 783.667,823.5 783.667,796.5 783,769.5C 777.259,768.525 771.425,768.192 765.5,768.5C 765.824,772.555 765.491,776.555 764.5,780.5C 760.071,775.732 755.071,771.732 749.5,768.5C 726.821,763.009 710.488,770.676 700.5,791.5C 701.325,792.386 702.325,792.719 703.5,792.5C 703.344,796.582 703.844,800.582 705,804.5C 705.359,801.456 706.026,801.122 707,803.5C 708,802.167 709,802.167 710,803.5C 710.923,802.241 711.757,800.908 712.5,799.5C 714.071,800.309 715.738,800.643 717.5,800.5C 715.569,797.236 716.569,795.403 720.5,795C 723.682,789.489 728.349,785.822 734.5,784C 739.308,784.072 743.808,783.239 748,781.5C 748.725,783.158 749.892,783.658 751.5,783C 750.167,782 748.833,781 747.5,780C 748.966,779.365 750.3,778.531 751.5,777.5C 751.833,777.833 752.167,778.167 752.5,778.5C 750.193,780.328 750.526,781.994 753.5,783.5C 754.167,782.833 754.833,782.167 755.5,781.5C 755.225,785.348 756.725,786.014 760,783.5C 760.5,784 761,784.5 761.5,785C 760.382,786.074 759.382,787.24 758.5,788.5C 757.304,788.154 757.304,787.654 758.5,787C 756.576,785.733 754.91,785.733 753.5,787C 754.448,787.483 755.448,787.649 756.5,787.5C 758.333,791.33 760.333,795.163 762.5,799C 763.881,805.567 763.881,810.067 762.5,812.5C 762.549,806.576 761.382,800.91 759,795.5C 757.945,792.944 756.112,791.277 753.5,790.5C 748.394,785.94 742.394,784.44 735.5,786C 734.263,786.232 733.263,786.732 732.5,787.5C 729.669,788.079 727.336,789.412 725.5,791.5C 715.886,804.704 716.886,817.204 728.5,829C 742.333,835.997 753,832.83 760.5,819.5C 761.043,819.56 761.376,819.893 761.5,820.5C 753.021,834.932 741.355,838.099 726.5,830C 719.78,823.346 716.613,815.18 717,805.5C 716.767,809.674 715.434,813.341 713,816.5C 712.667,814.5 712.333,812.5 712,810.5C 711.667,811.833 711.333,813.167 711,814.5C 710.535,813.069 709.701,811.903 708.5,811C 708.889,809.382 710.222,808.215 712.5,807.5C 712.192,806.692 711.692,806.025 711,805.5C 709.719,805.381 708.552,805.881 707.5,807C 708.451,807.718 708.617,808.551 708,809.5C 706.667,808.167 705.333,806.833 704,805.5C 703.306,806.818 702.473,807.651 701.5,808C 701.611,809.722 702.111,809.888 703,808.5C 703.75,809.126 704.584,809.626 705.5,810C 702.727,811.888 702.394,813.888 704.5,816C 702.625,818.198 702.625,820.031 704.5,821.5C 703.803,825.037 703.469,828.537 703.5,832C 711.852,846.631 724.518,852.964 741.5,851C 745.348,850.41 749.014,849.243 752.5,847.5C 753.107,847.624 753.44,847.957 753.5,848.5C 735.674,856.455 719.841,853.455 706,839.5C 695.704,824.441 693.37,808.441 699,791.5C 709.166,769.003 726.333,760.836 750.5,767C 755.302,769.807 759.469,773.307 763,777.5C 763.333,774.5 763.667,771.5 764,768.5C 764.5,768 765,767.5 765.5,767C 771.5,766.333 777.5,766.333 783.5,767C 784.662,796.762 784.828,826.595 784,856.5C 782.928,860.547 781.761,864.547 780.5,868.5 Z M 753.5,790.5 C 756.112,791.277 757.945,792.944 759,795.5C 761.382,800.91 762.549,806.576 762.5,812.5C 761.593,814.657 760.927,816.99 760.5,819.5C 753,832.83 742.333,835.997 728.5,829C 716.886,817.204 715.886,804.704 725.5,791.5C 727.336,789.412 729.669,788.079 732.5,787.5C 733.263,786.732 734.263,786.232 735.5,786C 742.394,784.44 748.394,785.94 753.5,790.5 Z"/></g>
<g><path style="opacity:0.004" fill="#196373" d="M 312.5,803.5 C 313.833,804.167 313.833,804.167 312.5,803.5 Z"/></g>
<g><path style="opacity:0.02" fill="#1d6577" d="M 531.5,803.5 C 532.833,804.167 532.833,804.167 531.5,803.5 Z"/></g>
<g><path style="opacity:0.016" fill="#216978" d="M 635.5,803.5 C 636.833,804.167 636.833,804.167 635.5,803.5 Z"/></g>
<g><path style="opacity:0.004" fill="#206576" d="M 385.5,807.5 C 386.833,808.167 386.833,808.167 385.5,807.5 Z"/></g>
<g><path style="opacity:0.004" fill="#226a75" d="M 635.5,807.5 C 636.833,808.167 636.833,808.167 635.5,807.5 Z"/></g>
<g><path style="opacity:0.008" fill="#216871" d="M 661.5,807.5 C 662.833,808.167 662.833,808.167 661.5,807.5 Z"/></g>
<g><path style="opacity:0.004" fill="#186372" d="M 312.5,811.5 C 313.833,812.167 313.833,812.167 312.5,811.5 Z"/></g>
<g><path style="opacity:0.016" fill="#1f6778" d="M 336.5,812.5 C 337.833,813.167 337.833,813.167 336.5,812.5 Z"/></g>
<g><path style="opacity:0.004" fill="#226775" d="M 661.5,812.5 C 662.833,813.167 662.833,813.167 661.5,812.5 Z"/></g>
<g><path style="opacity:0.004" fill="#266874" d="M 212.5,813.5 C 213.833,814.167 213.833,814.167 212.5,813.5 Z"/></g>
<g><path style="opacity:0.004" fill="#2a6873" d="M 785.5,813.5 C 786.833,814.167 786.833,814.167 785.5,813.5 Z"/></g>
<g><path style="opacity:0.004" fill="#216874" d="M 545.5,814.5 C 546.833,815.167 546.833,815.167 545.5,814.5 Z"/></g>
<g><path style="opacity:0.004" fill="#236a76" d="M 635.5,816.5 C 636.833,817.167 636.833,817.167 635.5,816.5 Z"/></g>
<g><path style="opacity:0.008" fill="#236b74" d="M 799.5,816.5 C 800.833,817.167 800.833,817.167 799.5,816.5 Z"/></g>
<g><path style="opacity:0.004" fill="#176372" d="M 312.5,817.5 C 313.833,818.167 313.833,818.167 312.5,817.5 Z"/></g>
<g><path style="opacity:0.008" fill="#1a6377" d="M 164.5,818.5 C 165.833,819.167 165.833,819.167 164.5,818.5 Z"/></g>
<g><path style="opacity:0.004" fill="#236877" d="M 635.5,818.5 C 636.525,818.897 636.692,819.563 636,820.5C 635.536,819.906 635.369,819.239 635.5,818.5 Z"/></g>
<g><path style="opacity:0.008" fill="#246772" d="M 234.5,823.5 C 233.427,822.749 233.26,821.749 234,820.5C 234.483,821.448 234.649,822.448 234.5,823.5 Z"/></g>
<g><path style="opacity:0.004" fill="#256972" d="M 661.5,821.5 C 662.833,822.167 662.833,822.167 661.5,821.5 Z"/></g>
<g><path style="opacity:1" fill="#06475f" d="M 438.5,814.5 C 438.215,816.288 438.548,817.955 439.5,819.5C 446.665,792.173 453.832,764.839 461,737.5C 461.5,736.333 462.333,735.5 463.5,735C 468.833,734.333 474.167,734.333 479.5,735C 480,735.5 480.5,736 481,736.5C 488.489,764.123 495.823,791.79 503,819.5C 506.487,806.219 509.654,792.886 512.5,779.5C 516.774,765.414 520.607,751.081 524,736.5C 524.75,735.874 525.584,735.374 526.5,735C 533.218,734.205 539.884,734.372 546.5,735.5C 547.641,737.421 547.808,739.421 547,741.5C 541.848,760.45 537.015,779.45 532.5,798.5C 527.356,816.394 522.189,834.394 517,852.5C 509.58,853.647 502.08,853.813 494.5,853C 486.474,827.921 478.641,802.755 471,777.5C 464.181,802.958 456.681,828.124 448.5,853C 445.242,853.212 442.076,853.712 439,854.5C 436,853.167 433,853.167 430,854.5C 428.933,853.809 427.766,853.309 426.5,853C 423.758,847.11 421.591,840.943 420,834.5C 411.836,802.51 403.669,770.51 395.5,738.5C 395.529,736.971 396.196,735.804 397.5,735C 404.167,734.333 410.833,734.333 417.5,735C 418,735.5 418.5,736 419,736.5C 425.328,762.669 431.828,788.669 438.5,814.5 Z"/></g>
<g><path style="opacity:0.008" fill="#1d697a" d="M 460.5,819.5 C 461.833,820.167 461.833,820.167 460.5,819.5 Z"/></g>
<g><path style="opacity:0.012" fill="#1c697e" d="M 502.5,813.5 C 503.833,814.167 503.833,814.167 502.5,813.5 Z"/></g>
<g><path style="opacity:0.008" fill="#1f687c" d="M 439.5,812.5 C 439.672,813.492 439.338,814.158 438.5,814.5C 438.328,813.508 438.662,812.842 439.5,812.5 Z"/></g>
<g><path style="opacity:0.004" fill="#1c687d" d="M 439.5,811.5 C 440.833,812.167 440.833,812.167 439.5,811.5 Z"/></g>
<g><path style="opacity:0.004" fill="#1c677a" d="M 440.5,807.5 C 441.833,808.167 441.833,808.167 440.5,807.5 Z"/></g>
<g><path style="opacity:0.02" fill="#1d6779" d="M 437.5,807.5 C 438.833,808.167 438.833,808.167 437.5,807.5 Z"/></g>
<g><path style="opacity:0.008" fill="#1b667a" d="M 500.5,805.5 C 501.833,806.167 501.833,806.167 500.5,805.5 Z"/></g>
<g><path style="opacity:0.004" fill="#1e6778" d="M 464.5,803.5 C 465.833,804.167 465.833,804.167 464.5,803.5 Z"/></g>
<g><path style="opacity:0.012" fill="#1e6577" d="M 435.5,798.5 C 436.833,799.167 436.833,799.167 435.5,798.5 Z"/></g>
<g><path style="opacity:0.008" fill="#1e6879" d="M 474.5,794.5 C 475.833,795.167 475.833,795.167 474.5,794.5 Z"/></g>
<g><path style="opacity:0.004" fill="#1d677b" d="M 467.5,794.5 C 468.833,795.167 468.833,795.167 467.5,794.5 Z"/></g>
<g><path style="opacity:0.012" fill="#1e697d" d="M 473.5,790.5 C 474.833,791.167 474.833,791.167 473.5,790.5 Z"/></g>
<g><path style="opacity:0.004" fill="#196373" d="M 433.5,790.5 C 434.833,791.167 434.833,791.167 433.5,790.5 Z"/></g>
<g><path style="opacity:0.004" fill="#1b687b" d="M 472.5,787.5 C 473.833,788.167 473.833,788.167 472.5,787.5 Z"/></g>
<g><path style="opacity:0.027" fill="#1c6778" d="M 471.5,785.5 C 472.833,786.167 472.833,786.167 471.5,785.5 Z"/></g>
<g><path style="opacity:0.004" fill="#1d667a" d="M 494.5,781.5 C 495.833,782.167 495.833,782.167 494.5,781.5 Z"/></g>
<g><path style="opacity:0.004" fill="#186678" d="M 512.5,779.5 C 511.833,778.167 511.833,778.167 512.5,779.5 Z"/></g>
<g><path style="opacity:0.004" fill="#186578" d="M 511.5,776.5 C 512.833,777.167 512.833,777.167 511.5,776.5 Z"/></g>
<g><path style="opacity:0.012" fill="#20697b" d="M 448.5,775.5 C 449.833,776.167 449.833,776.167 448.5,775.5 Z"/></g>
<g><path style="opacity:0.012" fill="#1a687a" d="M 511.5,774.5 C 512.833,775.167 512.833,775.167 511.5,774.5 Z"/></g>
<g><path style="opacity:0.005" fill="#216777" d="M 427.5,763.5 C 428.573,764.251 428.74,765.251 428,766.5C 427.517,765.552 427.351,764.552 427.5,763.5 Z"/></g>
<g><path style="opacity:0.004" fill="#246c7a" d="M 455.5,749.5 C 456.833,750.167 456.833,750.167 455.5,749.5 Z"/></g>
<g><path style="opacity:0.016" fill="#236877" d="M 519.5,743.5 C 520.573,744.251 520.74,745.251 520,746.5C 519.517,745.552 519.351,744.552 519.5,743.5 Z"/></g>
<g><path style="opacity:0.004" fill="#2c6c76" d="M 457.5,741.5 C 458.833,742.167 458.833,742.167 457.5,741.5 Z"/></g>
<g><path style="opacity:0.004" fill="#2d6d75" d="M 458.5,738.5 C 459.833,739.167 459.833,739.167 458.5,738.5 Z"/></g>
<g><path style="opacity:0.006" fill="#1d6878" d="M 526.5,822.5 C 527.525,822.897 527.692,823.563 527,824.5C 526.536,823.906 526.369,823.239 526.5,822.5 Z"/></g>
<g><path style="opacity:1" fill="#07475f" d="M 379.5,768.5 C 383.679,771.027 387.179,774.36 390,778.5C 391.25,781.077 391.584,783.743 391,786.5C 386.708,788.539 382.208,790.205 377.5,791.5C 370.649,783.87 362.316,781.704 352.5,785C 346.974,789.528 347.307,793.361 353.5,796.5C 364.203,800.291 374.869,804.291 385.5,808.5C 398.029,823.05 397.029,836.884 382.5,850C 364.553,859.101 347.219,858.101 330.5,847C 325.395,842.628 323.228,837.128 324,830.5C 328.818,828.506 333.652,826.839 338.5,825.5C 340.141,826.147 341.474,827.147 342.5,828.5C 343.588,832.09 345.921,834.59 349.5,836C 354.428,837.418 359.428,837.751 364.5,837C 370.019,835.496 372.186,831.996 371,826.5C 370.617,825.944 370.117,825.611 369.5,825.5C 368.657,823.827 367.324,822.66 365.5,822C 354.387,818.632 343.72,814.299 333.5,809C 326.692,802.135 324.359,793.968 326.5,784.5C 328.982,778.344 332.982,773.344 338.5,769.5C 345.056,766.82 351.889,765.153 359,764.5C 366.019,765 372.852,766.334 379.5,768.5 Z"/></g>
<g><path style="opacity:0.012" fill="#266a71" d="M 661.5,823.5 C 662.833,824.167 662.833,824.167 661.5,823.5 Z"/></g>
<g><path style="opacity:0.016" fill="#226b79" d="M 695.5,822.5 C 696.525,822.897 696.692,823.563 696,824.5C 695.536,823.906 695.369,823.239 695.5,822.5 Z"/></g>
<g><path style="opacity:0.004" fill="#1e6877" d="M 334.5,824.5 C 335.833,825.167 335.833,825.167 334.5,824.5 Z"/></g>
<g><path style="opacity:0.016" fill="#21667a" d="M 338.5,825.5 C 337.833,824.167 337.833,824.167 338.5,825.5 Z"/></g>
<g><path style="opacity:0.008" fill="#216875" d="M 232.5,825.5 C 233.573,826.251 233.74,827.251 233,828.5C 232.517,827.552 232.351,826.552 232.5,825.5 Z"/></g>
<g><path style="opacity:0.008" fill="#1e6879" d="M 369.5,825.5 C 368.833,826.167 368.833,826.167 369.5,825.5 Z"/></g>
<g><path style="opacity:0.012" fill="#23687a" d="M 415.5,825.5 C 416.833,826.167 416.833,826.167 415.5,825.5 Z"/></g>
<g><path style="opacity:1" fill="#054860" d="M 855.5,850.5 C 854.686,848.369 854.186,846.036 854,843.5C 853.487,844.527 852.987,845.527 852.5,846.5C 840.87,856.591 827.87,858.758 813.5,853C 808.971,849.636 804.971,845.803 801.5,841.5C 795.5,819.343 803.834,806.176 826.5,802C 835.472,800.96 844.472,800.46 853.5,800.5C 853.759,795.59 852.093,791.59 848.5,788.5C 845.773,785.395 842.273,784.062 838,784.5C 832.9,784.138 828.733,785.805 825.5,789.5C 823.661,790.508 822.328,792.008 821.5,794C 816.106,794.124 810.773,793.457 805.5,792C 803.859,790.871 802.859,789.371 802.5,787.5C 803.167,785.833 803.833,784.167 804.5,782.5C 804.369,783.239 804.536,783.906 805,784.5C 807.779,776.513 813.279,771.346 821.5,769C 832.167,767 842.833,767 853.5,769C 864.714,773.544 871.547,781.71 874,793.5C 874.833,812.842 874.666,832.175 873.5,851.5C 868.22,852.618 862.887,852.784 857.5,852C 856.718,849.26 856.218,846.426 856,843.5C 855.503,845.81 855.337,848.143 855.5,850.5 Z M 828.5,819.5 C 831.719,817.282 835.386,816.115 839.5,816C 844.155,815.501 848.821,815.334 853.5,815.5C 854.095,829.078 847.595,836.745 834,838.5C 825.377,837.558 821.71,832.892 823,824.5C 824.076,821.921 825.909,820.254 828.5,819.5 Z"/></g>
<g><path style="opacity:0.008" fill="#1b6575" d="M 825.5,789.5 C 826.833,790.167 826.833,790.167 825.5,789.5 Z"/></g>
<g><path style="opacity:0.016" fill="#1d6874" d="M 848.5,788.5 C 848.631,789.239 848.464,789.906 848,790.5C 847.308,789.563 847.475,788.897 848.5,788.5 Z"/></g>
<g><path style="opacity:0.004" fill="#1f6576" d="M 842.5,786.5 C 843.833,787.167 843.833,787.167 842.5,786.5 Z"/></g>
<g><path style="opacity:0.004" fill="#1d6070" d="M 342.5,827.5 C 343.833,828.167 343.833,828.167 342.5,827.5 Z"/></g>
<g><path style="opacity:0.004" fill="#236976" d="M 696.5,828.5 C 696.897,827.475 697.563,827.308 698.5,828C 697.906,828.464 697.239,828.631 696.5,828.5 Z"/></g>
<g><path style="opacity:0.012" fill="#216875" d="M 232.5,829.5 C 233.525,829.897 233.692,830.563 233,831.5C 232.536,830.906 232.369,830.239 232.5,829.5 Z"/></g>
<g><path style="opacity:0.02" fill="#266873" d="M 321.5,830.5 C 322.833,831.167 322.833,831.167 321.5,830.5 Z"/></g>
<g><path style="opacity:0.016" fill="#1f6a79" d="M 369.5,829.5 C 370.525,829.897 370.692,830.563 370,831.5C 369.536,830.906 369.369,830.239 369.5,829.5 Z"/></g>
<g><path style="opacity:0.004" fill="#256d7b" d="M 417.5,830.5 C 418.833,831.167 418.833,831.167 417.5,830.5 Z"/></g>
<g><path style="opacity:0.008" fill="#286a79" d="M 698.5,830.5 C 699.833,831.167 699.833,831.167 698.5,830.5 Z"/></g>
<g><path style="opacity:0.004" fill="#1b6476" d="M 345.5,831.5 C 346.833,832.167 346.833,832.167 345.5,831.5 Z"/></g>
<g><path style="opacity:0.012" fill="#236b75" d="M 635.5,831.5 C 636.833,832.167 636.833,832.167 635.5,831.5 Z"/></g>
<g><path style="opacity:0.02" fill="#286a71" d="M 661.5,831.5 C 662.833,832.167 662.833,832.167 661.5,831.5 Z"/></g>
<g><path style="opacity:0.004" fill="#256a72" d="M 395.5,832.5 C 396.833,833.167 396.833,833.167 395.5,832.5 Z"/></g>
<g><path style="opacity:0.004" fill="#1f6772" d="M 192.5,833.5 C 193.833,834.167 193.833,834.167 192.5,833.5 Z"/></g>
<g><path style="opacity:0.004" fill="#1c6572" d="M 312.5,833.5 C 313.833,834.167 313.833,834.167 312.5,833.5 Z"/></g>
<g><path style="opacity:0.004" fill="#246874" d="M 320.5,833.5 C 321.833,834.167 321.833,834.167 320.5,833.5 Z"/></g>
<g><path style="opacity:1" fill="#024963" d="M 754.5,847.5 C 754.5,848.167 754.167,848.5 753.5,848.5C 753.44,847.957 753.107,847.624 752.5,847.5C 749.014,849.243 745.348,850.41 741.5,851C 724.518,852.964 711.852,846.631 703.5,832C 703.469,828.537 703.803,825.037 704.5,821.5C 702.625,820.031 702.625,818.198 704.5,816C 702.394,813.888 702.727,811.888 705.5,810C 704.584,809.626 703.75,809.126 703,808.5C 702.111,809.888 701.611,809.722 701.5,808C 702.473,807.651 703.306,806.818 704,805.5C 705.333,806.833 706.667,808.167 708,809.5C 708.617,808.551 708.451,807.718 707.5,807C 708.552,805.881 709.719,805.381 711,805.5C 711.692,806.025 712.192,806.692 712.5,807.5C 710.222,808.215 708.889,809.382 708.5,811C 709.701,811.903 710.535,813.069 711,814.5C 711.333,813.167 711.667,811.833 712,810.5C 712.333,812.5 712.667,814.5 713,816.5C 715.434,813.341 716.767,809.674 717,805.5C 716.613,815.18 719.78,823.346 726.5,830C 741.355,838.099 753.021,834.932 761.5,820.5C 761.376,819.893 761.043,819.56 760.5,819.5C 760.927,816.99 761.593,814.657 762.5,812.5C 763.881,810.067 763.881,805.567 762.5,799C 760.333,795.163 758.333,791.33 756.5,787.5C 755.448,787.649 754.448,787.483 753.5,787C 754.91,785.733 756.576,785.733 758.5,787C 757.304,787.654 757.304,788.154 758.5,788.5C 759.382,787.24 760.382,786.074 761.5,785C 761,784.5 760.5,784 760,783.5C 756.725,786.014 755.225,785.348 755.5,781.5C 754.833,782.167 754.167,782.833 753.5,783.5C 750.526,781.994 750.193,780.328 752.5,778.5C 752.167,778.167 751.833,777.833 751.5,777.5C 750.3,778.531 748.966,779.365 747.5,780C 748.833,781 750.167,782 751.5,783C 749.892,783.658 748.725,783.158 748,781.5C 743.808,783.239 739.308,784.072 734.5,784C 728.349,785.822 723.682,789.489 720.5,795C 716.569,795.403 715.569,797.236 717.5,800.5C 715.738,800.643 714.071,800.309 712.5,799.5C 711.757,800.908 710.923,802.241 710,803.5C 709,802.167 708,802.167 707,803.5C 706.026,801.122 705.359,801.456 705,804.5C 703.844,800.582 703.344,796.582 703.5,792.5C 702.325,792.719 701.325,792.386 700.5,791.5C 710.488,770.676 726.821,763.009 749.5,768.5C 755.071,771.732 760.071,775.732 764.5,780.5C 765.491,776.555 765.824,772.555 765.5,768.5C 771.425,768.192 777.259,768.525 783,769.5C 783.667,796.5 783.667,823.5 783,850.5C 782.915,856.627 781.748,856.96 779.5,851.5C 778.77,852.934 777.77,854.1 776.5,855C 781.044,855.022 782.544,857.188 781,861.5C 780.667,861.167 780.333,860.833 780,860.5C 777.611,862.301 777.111,864.468 778.5,867C 776.624,871.517 773.791,872.35 770,869.5C 768.691,871.891 767.691,871.891 767,869.5C 766,870.833 765,870.833 764,869.5C 763.667,870.167 763.333,870.833 763,871.5C 762.374,869.009 761.541,869.009 760.5,871.5C 760.446,870.47 760.112,869.303 759.5,868C 762.464,867.16 762.797,866.16 760.5,865C 762.135,864.46 763.468,864.96 764.5,866.5C 765.5,866 766.5,865.5 767.5,865C 767.167,864.667 766.833,864.333 766.5,864C 768.781,862.518 768.781,860.851 766.5,859C 768.619,860.02 770.953,860.354 773.5,860C 770.977,859.482 768.977,858.148 767.5,856C 768.167,855.667 768.833,855.333 769.5,855C 768.107,853.829 767.273,852.329 767,850.5C 766.107,851.711 765.274,851.711 764.5,850.5C 766.644,849.114 767.977,847.614 768.5,846C 767.833,845.333 767.167,844.667 766.5,844C 768.661,842.236 768.828,840.403 767,838.5C 765.853,839.458 764.853,839.125 764,837.5C 762.331,840.909 759.998,841.242 757,838.5C 755.283,840.873 753.783,843.373 752.5,846C 753.416,846.278 754.082,846.778 754.5,847.5 Z"/></g>
<g><path style="opacity:0.012" fill="#236a78" d="M 523.5,833.5 C 524.525,833.897 524.692,834.563 524,835.5C 523.536,834.906 523.369,834.239 523.5,833.5 Z"/></g>
<g><path style="opacity:0.004" fill="#206675" d="M 360.5,835.5 C 361.833,836.167 361.833,836.167 360.5,835.5 Z"/></g>
<g><path style="opacity:0.008" fill="#266b78" d="M 418.5,835.5 C 419.525,835.897 419.692,836.563 419,837.5C 418.536,836.906 418.369,836.239 418.5,835.5 Z"/></g>
<g><path style="opacity:1" fill="#054860" d="M 620.5,792.5 C 619.503,811.993 619.17,831.66 619.5,851.5C 613.811,852.67 608.144,852.67 602.5,851.5C 602.006,847.616 601.006,843.949 599.5,840.5C 598.52,841.981 597.353,843.315 596,844.5C 595.308,845.437 595.475,846.103 596.5,846.5C 581.718,859.402 566.551,859.735 551,847.5C 540.961,834.066 541.794,821.232 553.5,809C 558.66,805.501 564.326,803.167 570.5,802C 580.169,801.184 589.835,800.351 599.5,799.5C 598.811,797.556 598.311,795.556 598,793.5C 597.623,792.058 596.79,791.058 595.5,790.5C 592.666,785.934 588.499,783.934 583,784.5C 575.802,784.683 570.302,787.85 566.5,794C 560.219,794.231 554.219,793.065 548.5,790.5C 550.107,776.724 557.774,768.557 571.5,766C 584.084,763.186 596.417,765.186 608.5,772C 615.273,777.259 619.273,784.092 620.5,792.5 Z M 573.5,819.5 C 576.719,817.282 580.386,816.115 584.5,816C 589.5,815.333 594.5,815.333 599.5,816C 599.238,828.95 592.405,836.45 579,838.5C 570.05,837.891 566.383,833.224 568,824.5C 569.076,821.921 570.909,820.254 573.5,819.5 Z"/></g>
<g><path style="opacity:0.004" fill="#1f6977" d="M 595.5,792.5 C 596.833,793.167 596.833,793.167 595.5,792.5 Z"/></g>
<g><path style="opacity:0.02" fill="#1c697a" d="M 595.5,790.5 C 594.833,791.167 594.833,791.167 595.5,790.5 Z"/></g>
<g><path style="opacity:0.004" fill="#1d6574" d="M 570.5,790.5 C 571.833,791.167 571.833,791.167 570.5,790.5 Z"/></g>
<g><path style="opacity:0.02" fill="#1b6876" d="M 584.5,785.5 C 585.833,786.167 585.833,786.167 584.5,785.5 Z"/></g>
<g><path style="opacity:0.004" fill="#246b77" d="M 522.5,837.5 C 523.833,838.167 523.833,838.167 522.5,837.5 Z"/></g>
<g><path style="opacity:0.012" fill="#206978" d="M 543.5,837.5 C 544.525,837.897 544.692,838.563 544,839.5C 543.536,838.906 543.369,838.239 543.5,837.5 Z"/></g>
<g><path style="opacity:0.008" fill="#41716f" d="M 135.5,839.5 C 136.833,840.167 136.833,840.167 135.5,839.5 Z"/></g>
<g><path style="opacity:0.004" fill="#2c6a72" d="M 661.5,839.5 C 662.833,840.167 662.833,840.167 661.5,839.5 Z"/></g>
<g><path style="opacity:0.012" fill="#2b6c73" d="M 323.5,840.5 C 324.833,841.167 324.833,841.167 323.5,840.5 Z"/></g>
<g><path style="opacity:0.004" fill="#256a74" d="M 235.5,841.5 C 236.833,842.167 236.833,842.167 235.5,841.5 Z"/></g>
<g><path style="opacity:0.008" fill="#256678" d="M 453.5,841.5 C 454.833,842.167 454.833,842.167 453.5,841.5 Z"/></g>
<g><path style="opacity:0.004" fill="#2b6b74" d="M 521.5,841.5 C 522.833,842.167 522.833,842.167 521.5,841.5 Z"/></g>
<g><path style="opacity:0.008" fill="#2a6671" d="M 801.5,841.5 C 800.833,842.167 800.833,842.167 801.5,841.5 Z"/></g>
<g><path style="opacity:0.004" fill="#2d6d75" d="M 164.5,845.5 C 165.833,846.167 165.833,846.167 164.5,845.5 Z"/></g>
<g><path style="opacity:0.012" fill="#2e7179" d="M 489.5,846.5 C 490.833,847.167 490.833,847.167 489.5,846.5 Z"/></g>
<g><path style="opacity:0.004" fill="#226675" d="M 711.5,846.5 C 712.833,847.167 712.833,847.167 711.5,846.5 Z"/></g>
<g><path style="opacity:0.008" fill="#2e6a72" d="M 852.5,846.5 C 853.833,847.167 853.833,847.167 852.5,846.5 Z"/></g>
<g><path style="opacity:0.024" fill="#316d73" d="M 164.5,848.5 C 165.833,849.167 165.833,849.167 164.5,848.5 Z"/></g>
<g><path style="opacity:0.012" fill="#2e686e" d="M 235.5,848.5 C 236.833,849.167 236.833,849.167 235.5,848.5 Z"/></g>
<g><path style="opacity:0.004" fill="#326a72" d="M 242.5,848.5 C 241.833,849.167 241.833,849.167 242.5,848.5 Z"/></g>
<g><path style="opacity:0.004" fill="#3a6f72" d="M 661.5,848.5 C 662.833,849.167 662.833,849.167 661.5,848.5 Z"/></g>
<g><path style="opacity:0.004" fill="#366b6e" d="M 848.5,850.5 C 849.833,851.167 849.833,851.167 848.5,850.5 Z"/></g>
<g><path style="opacity:0.004" fill="#376e71" d="M 163.5,851.5 C 164.833,852.167 164.833,852.167 163.5,851.5 Z"/></g>
<g><path style="opacity:0.008" fill="#2e6b6f" d="M 785.5,851.5 C 786.833,852.167 786.833,852.167 785.5,851.5 Z"/></g>
<g><path style="opacity:1" fill="#15343e" d="M 620.5,792.5 C 621.667,810.754 621.667,828.254 620.5,845C 621.061,846.676 622.061,848.009 623.5,849C 622.552,849.483 621.552,849.649 620.5,849.5C 620.5,850.5 620.5,851.5 620.5,852.5C 614.266,854.955 607.933,855.122 601.5,853C 600.833,851.667 600.167,850.333 599.5,849C 600.097,847.374 600.097,845.541 599.5,843.5C 598.712,844.77 597.712,845.77 596.5,846.5C 595.475,846.103 595.308,845.437 596,844.5C 597.353,843.315 598.52,841.981 599.5,840.5C 601.006,843.949 602.006,847.616 602.5,851.5C 608.144,852.67 613.811,852.67 619.5,851.5C 619.17,831.66 619.503,811.993 620.5,792.5 Z"/></g>
<g><path style="opacity:0.01" fill="#33686c" d="M 620.5,852.5 C 621.525,852.897 621.692,853.563 621,854.5C 620.536,853.906 620.369,853.239 620.5,852.5 Z"/></g>
<g><path style="opacity:0.004" fill="#3d6c6f" d="M 659.5,853.5 C 660.833,854.167 660.833,854.167 659.5,853.5 Z"/></g>
<g><path style="opacity:0.004" fill="#1a6578" d="M 742.5,853.5 C 743.833,854.167 743.833,854.167 742.5,853.5 Z"/></g>
<g><path style="opacity:0.004" fill="#2f6b70" d="M 277.5,854.5 C 278.833,855.167 278.833,855.167 277.5,854.5 Z"/></g>
<g><path style="opacity:0.004" fill="#386c6f" d="M 342.5,854.5 C 343.833,855.167 343.833,855.167 342.5,854.5 Z"/></g>
<g><path style="opacity:0.004" fill="#3a7075" d="M 511.5,855.5 C 511.897,854.475 512.563,854.308 513.5,855C 512.906,855.464 512.239,855.631 511.5,855.5 Z"/></g>
<g><path style="opacity:0.004" fill="#30696d" d="M 559.5,854.5 C 560.833,855.167 560.833,855.167 559.5,854.5 Z"/></g>
<g><path style="opacity:0.02" fill="#3f7373" d="M 615.5,854.5 C 616.833,855.167 616.833,855.167 615.5,854.5 Z"/></g>
<g><path style="opacity:0.008" fill="#3c7270" d="M 657.5,854.5 C 658.833,855.167 658.833,855.167 657.5,854.5 Z"/></g>
<g><path style="opacity:0.008" fill="#1d6877" d="M 737.5,854.5 C 738.833,855.167 738.833,855.167 737.5,854.5 Z"/></g>
<g><path style="opacity:0.004" fill="#2f6c6d" d="M 785.5,854.5 C 786.833,855.167 786.833,855.167 785.5,854.5 Z"/></g>
<g><path style="opacity:0.004" fill="#316b6d" d="M 841.5,854.5 C 842.833,855.167 842.833,855.167 841.5,854.5 Z"/></g>
<g><path style="opacity:0.004" fill="#3f6d69" d="M 351.5,856.5 C 352.833,857.167 352.833,857.167 351.5,856.5 Z"/></g>
<g><path style="opacity:0.008" fill="#3e6e6b" d="M 366.5,856.5 C 367.833,857.167 367.833,857.167 366.5,856.5 Z"/></g>
<g><path style="opacity:0.016" fill="#1f6979" d="M 721.5,863.5 C 722.833,864.167 722.833,864.167 721.5,863.5 Z"/></g>
<g><path style="opacity:0.004" fill="#216879" d="M 724.5,864.5 C 725.833,865.167 725.833,865.167 724.5,864.5 Z"/></g>
<g><path style="opacity:0.008" fill="#386a69" d="M 780.5,868.5 C 781.833,869.167 781.833,869.167 780.5,868.5 Z"/></g>
<g><path style="opacity:0.004" fill="#3e6e6a" d="M 697.5,870.5 C 698.833,871.167 698.833,871.167 697.5,870.5 Z"/></g>
<g><path style="opacity:0.012" fill="#376a6d" d="M 779.5,870.5 C 780.833,871.167 780.833,871.167 779.5,870.5 Z"/></g>
<g><path style="opacity:0.008" fill="#416d6c" d="M 722.5,889.5 C 723.833,890.167 723.833,890.167 722.5,889.5 Z"/></g>
<g><path style="opacity:0.004" fill="#3f6f6f" d="M 727.5,891.5 C 727.897,890.475 728.563,890.308 729.5,891C 728.906,891.464 728.239,891.631 727.5,891.5 Z"/></g>
</svg>
